<svg xmlns="http://www.w3.org/2000/svg" width="52" height="52" viewBox="0 0 52 52" fill="none"><path d="M27 29.75C29.0711 29.75 30.75 28.0711 30.75 26C30.75 23.9289 29.0711 22.25 27 22.25C24.9289 22.25 23.25 23.9289 23.25 26C23.25 28.0711 24.9289 29.75 27 29.75Z" stroke="#000000" stroke-width="1.5" stroke-miterlimit="10"></path><path d="M31.125 17.375H22.875C20.3897 17.375 18.375 19.3897 18.375 21.875V30.125C18.375 32.6103 20.3897 34.625 22.875 34.625H31.125C33.6103 34.625 35.625 32.6103 35.625 30.125V21.875C35.625 19.3897 33.6103 17.375 31.125 17.375Z" stroke="#000000" stroke-width="1.5" stroke-linecap="round" stroke-linejoin="round"></path><path d="M31.875 22.25C32.4963 22.25 33 21.7463 33 21.125C33 20.5037 32.4963 20 31.875 20C31.2537 20 30.75 20.5037 30.75 21.125C30.75 21.7463 31.2537 22.25 31.875 22.25Z" fill="#000000"></path><circle cx="26" cy="26" r="25.5" stroke="#000000"></circle></svg>