<svg xmlns="http://www.w3.org/2000/svg" width="14" height="13" viewBox="0 0 14 13" fill="none"><path d="M6.78555 0.792236C6.94961 0.646403 7.10456 0.646403 7.25039 0.792236L12.9652 6.53442C13.1293 6.68026 13.1293 6.82609 12.9652 6.97192L7.25039 12.7141C7.10456 12.8599 6.94961 12.8599 6.78555 12.7141L6.23867 12.1672C6.18398 12.1125 6.15664 12.0396 6.15664 11.9485C6.15664 11.8573 6.18398 11.7753 6.23867 11.7024L10.477 7.46411H1.15273C0.933984 7.46411 0.824609 7.35474 0.824609 7.13599V6.37036C0.824609 6.15161 0.933984 6.04224 1.15273 6.04224H10.477L6.23867 1.80396C6.09284 1.63989 6.09284 1.48494 6.23867 1.33911L6.78555 0.792236Z" fill="#000000"></path></svg>