<svg width="20" height="20" viewBox="0 0 20 20" fill="none" xmlns="http://www.w3.org/2000/svg">
<path d="M10 17.5C14.1421 17.5 17.5 14.1421 17.5 10C17.5 5.85786 14.1421 2.5 10 2.5C5.85786 2.5 2.5 5.85786 2.5 10C2.5 14.1421 5.85786 17.5 10 17.5Z" stroke="black" stroke-linecap="round" stroke-linejoin="round"/>
<path d="M7.1875 10.7812C7.61897 10.7812 7.96875 10.4315 7.96875 10C7.96875 9.56853 7.61897 9.21875 7.1875 9.21875C6.75603 9.21875 6.40625 9.56853 6.40625 10C6.40625 10.4315 6.75603 10.7812 7.1875 10.7812Z" fill="black"/>
<path d="M12.8125 10.7812C13.244 10.7812 13.5938 10.4315 13.5938 10C13.5938 9.56853 13.244 9.21875 12.8125 9.21875C12.381 9.21875 12.0312 9.56853 12.0312 10C12.0312 10.4315 12.381 10.7812 12.8125 10.7812Z" fill="black"/>
<path d="M12.0729 13.1252C11.4582 13.5327 10.7371 13.75 9.99964 13.75C9.26219 13.7501 8.54108 13.5328 7.92639 13.1253" stroke="black" stroke-linecap="round" stroke-linejoin="round"/>
<path d="M10 2.5C8.75 4.0625 8.75 5.625 8.75 5.625C8.75 5.95652 8.8817 6.27446 9.11612 6.50888C9.35054 6.7433 9.66848 6.875 10 6.875C10.3315 6.875 10.6495 6.7433 10.8839 6.50888C11.1183 6.27446 11.25 5.95652 11.25 5.625" stroke="black" stroke-linecap="round" stroke-linejoin="round"/>
</svg>
