<svg width="20" height="20" viewBox="0 0 20 20" fill="none" xmlns="http://www.w3.org/2000/svg">
<path d="M10 15V16.875" stroke="black" stroke-linecap="round" stroke-linejoin="round"/>
<path d="M7.1875 11.7188C7.61897 11.7188 7.96875 11.369 7.96875 10.9375C7.96875 10.506 7.61897 10.1562 7.1875 10.1562C6.75603 10.1562 6.40625 10.506 6.40625 10.9375C6.40625 11.369 6.75603 11.7188 7.1875 11.7188Z" fill="black"/>
<path d="M12.8125 11.7188C13.244 11.7188 13.5938 11.369 13.5938 10.9375C13.5938 10.506 13.244 10.1562 12.8125 10.1562C12.381 10.1562 12.0312 10.506 12.0312 10.9375C12.0312 11.369 12.381 11.7188 12.8125 11.7188Z" fill="black"/>
<path d="M11.25 13.75L10 15L8.75 13.75" stroke="black" stroke-linecap="round" stroke-linejoin="round"/>
<path d="M11.875 3.75009L16.2314 2.66099C16.3141 2.64033 16.4001 2.63678 16.4842 2.65058C16.5683 2.66438 16.6486 2.69522 16.7204 2.74122C16.7921 2.78723 16.8537 2.84741 16.9013 2.91808C16.9489 2.98874 16.9816 3.0684 16.9973 3.15215L18.28 9.99324C18.4004 10.6358 17.5781 11.0086 17.1742 10.4946L11.875 3.75009Z" stroke="black" stroke-linecap="round" stroke-linejoin="round"/>
<path d="M8.12545 3.74997L3.76907 2.66087C3.6864 2.64021 3.60038 2.63666 3.51629 2.65046C3.4322 2.66425 3.35182 2.6951 3.28009 2.7411C3.20836 2.7871 3.14679 2.84729 3.09917 2.91795C3.05155 2.98862 3.01889 3.06828 3.00319 3.15203L1.72049 9.99311C1.6 10.6357 2.42231 11.0085 2.82623 10.4944L8.12545 3.74997Z" stroke="black" stroke-linecap="round" stroke-linejoin="round"/>
<path d="M8.125 3.75H11.875" stroke="black" stroke-linecap="round" stroke-linejoin="round"/>
<path d="M16.25 9.31824V14.3751C16.25 15.0381 15.9866 15.674 15.5178 16.1428C15.0489 16.6117 14.413 16.8751 13.75 16.8751H6.25C5.58696 16.8751 4.95107 16.6117 4.48223 16.1428C4.01339 15.674 3.75 15.0381 3.75 14.3751V9.31824" stroke="black" stroke-linecap="round" stroke-linejoin="round"/>
</svg>
