<svg width="20" height="20" viewBox="0 0 20 20" fill="none" xmlns="http://www.w3.org/2000/svg">
<path d="M5.41259 3.125H14.5883C14.7107 3.125 14.8303 3.16089 14.9324 3.22822C15.0345 3.29556 15.1146 3.39138 15.1628 3.5038L18.3771 11.0038C18.4178 11.0989 18.4343 11.2026 18.4252 11.3056C18.416 11.4086 18.3813 11.5077 18.3244 11.5941C18.2675 11.6804 18.19 11.7513 18.0989 11.8003C18.0079 11.8493 17.9061 11.875 17.8026 11.875H2.1983C2.09488 11.875 1.99307 11.8493 1.902 11.8003C1.81094 11.7513 1.73346 11.6804 1.67653 11.5941C1.61959 11.5077 1.58497 11.4086 1.57578 11.3056C1.56658 11.2026 1.5831 11.0989 1.62384 11.0038L4.83812 3.5038C4.88631 3.39138 4.96642 3.29556 5.06853 3.22822C5.17065 3.16089 5.29027 3.125 5.41259 3.125V3.125Z" stroke="black" stroke-linecap="round" stroke-linejoin="round"/>
<path d="M10 11.875V16.875" stroke="black" stroke-linecap="round" stroke-linejoin="round"/>
<path d="M7.5 16.875H12.5" stroke="black" stroke-linecap="round" stroke-linejoin="round"/>
<path d="M15.625 11.875V15" stroke="black" stroke-linecap="round" stroke-linejoin="round"/>
</svg>
