<svg width="20" height="20" viewBox="0 0 20 20" fill="none" xmlns="http://www.w3.org/2000/svg">
<path d="M11.4446 7.06955L15.625 11.25C15.625 11.25 10 18.75 1.875 16.875L15.4576 2.95761C15.6027 2.81245 15.775 2.69729 15.9646 2.61871C16.1542 2.54013 16.3574 2.49966 16.5626 2.49963C16.7678 2.4996 16.9711 2.54 17.1607 2.61853C17.3503 2.69705 17.5226 2.81216 17.6677 2.95728C17.8128 3.1024 17.9279 3.27468 18.0064 3.4643C18.085 3.65391 18.1254 3.85714 18.1253 4.06237C18.1253 4.2676 18.0848 4.47081 18.0063 4.6604C17.9277 4.84999 17.8125 5.02224 17.6674 5.16732L13.7325 9.35836" stroke="black" stroke-linecap="round" stroke-linejoin="round"/>
</svg>
