<svg width="20" height="20" viewBox="0 0 20 20" fill="none" xmlns="http://www.w3.org/2000/svg">
<path d="M4.6875 18.5938C5.11897 18.5938 5.46875 18.244 5.46875 17.8125C5.46875 17.381 5.11897 17.0312 4.6875 17.0312C4.25603 17.0312 3.90625 17.381 3.90625 17.8125C3.90625 18.244 4.25603 18.5938 4.6875 18.5938Z" fill="black"/>
<path d="M6.875 16.4062C7.30647 16.4062 7.65625 16.0565 7.65625 15.625C7.65625 15.1935 7.30647 14.8438 6.875 14.8438C6.44353 14.8438 6.09375 15.1935 6.09375 15.625C6.09375 16.0565 6.44353 16.4062 6.875 16.4062Z" fill="black"/>
<path d="M2.1875 16.0938C2.61897 16.0938 2.96875 15.744 2.96875 15.3125C2.96875 14.881 2.61897 14.5312 2.1875 14.5312C1.75603 14.5312 1.40625 14.881 1.40625 15.3125C1.40625 15.744 1.75603 16.0938 2.1875 16.0938Z" fill="black"/>
<path d="M4.375 13.9062C4.80647 13.9062 5.15625 13.5565 5.15625 13.125C5.15625 12.6935 4.80647 12.3438 4.375 12.3438C3.94353 12.3438 3.59375 12.6935 3.59375 13.125C3.59375 13.5565 3.94353 13.9062 4.375 13.9062Z" fill="black"/>
<path d="M19.3748 3.125H17.1337C17.0516 3.125 16.9704 3.14117 16.8945 3.17258C16.8187 3.20398 16.7498 3.25002 16.6918 3.30806L14.3748 5.625L4.32279 7.30034C4.20951 7.31922 4.10363 7.36894 4.01676 7.44405C3.92989 7.51915 3.8654 7.61674 3.83035 7.7261C3.79531 7.83546 3.79107 7.95235 3.8181 8.06396C3.84513 8.17557 3.90239 8.27757 3.9836 8.35878L11.641 16.0162C11.7222 16.0974 11.8242 16.1547 11.9359 16.1817C12.0475 16.2087 12.1644 16.2045 12.2737 16.1695C12.3831 16.1344 12.4807 16.0699 12.5558 15.9831C12.6309 15.8962 12.6806 15.7903 12.6995 15.677L14.3748 5.625" stroke="black" stroke-linecap="round" stroke-linejoin="round"/>
</svg>
